HIERARCHY
ROOT ui
{
	 OFFSET 0 0 0
	 CHANNELS 3 XPosition YPosition Z Position
	 EndSite
	 {
	 OFFSET 0 -1 0
	 }
}
ROOT li
{
	 OFFSET 0 0 0
	 CHANNELS 3 XPosition YPosition Z Position
	 EndSite
	 {
	 OFFSET 0 -1 0
	 }
}
ROOT ul
{
	 OFFSET 0 0 0
	 CHANNELS 3 XPosition YPosition Z Position
	 EndSite
	 {
	 OFFSET 0 -1 0
	 }
}
ROOT ll
{
	 OFFSET 0 0 0
	 CHANNELS 3 XPosition YPosition Z Position
	 EndSite
	 {
	 OFFSET 0 -1 0
	 }
}
ROOT tt
{
	 OFFSET 0 0 0
	 CHANNELS 3 XPosition YPosition Z Position
	 EndSite
	 {
	 OFFSET 0 -1 0
	 }
}
ROOT tb
{
	 OFFSET 0 0 0
	 CHANNELS 3 XPosition YPosition Z Position
	 EndSite
	 {
	 OFFSET 0 -1 0
	 }
}
ROOT td
{
	 OFFSET 0 0 0
	 CHANNELS 3 XPosition YPosition Z Position
	 EndSite
	 {
	 OFFSET 0 -1 0
	 }
}
ROOT v
{
	 OFFSET 0 0 0
	 CHANNELS 3 XPosition YPosition Z Position
	 EndSite
	 {
	 OFFSET 0 -1 0
	 }
}
ROOT bn
{
	 OFFSET 0 0 0
	 CHANNELS 3 XPosition YPosition Z Position
	 EndSite
	 {
	 OFFSET 0 -1 0
	 }
}
MOTION
Frames: 21
Frame Time: 0.002
-0.0010874110460281372	0.00297830605506897	0		0.41475848388671877	-2.37021630859375	0		-0.9360274047851562	0.37747686767578126	0		-0.508775390625	-2.636993896484375	0		1.6934849853515626	-0.5210916137695313	0		3.196525634765625	-0.04686074829101562	0		4.41085498046875	0.08409349060058594	0		5.9878515625	0.4198326416015625	0		-0.09586042785644532	6.0093642578125	0		
0.007081717967987061	5.773360133171082E-4	0		0.4387679138183594	-2.374904052734375	0		-0.935804443359375	0.37725723266601563	0		-0.4459344482421875	-2.6512783203125	0		1.730556396484375	-0.5280615234375	0		3.235820556640625	-0.04194416427612305	0		4.422845703125	0.07039658355712891	0		5.99443798828125	0.4220218505859375	0		-0.2277054443359375	5.98829150390625	0		
-6.574980020523072E-4	0.002440226078033447	0		0.4088341369628906	-2.377695556640625	0		-0.9396257934570312	0.3730998840332031	0		-0.4869132690429688	-2.655843994140625	0		1.7335906982421876	-0.538462890625	0		3.216814697265625	-0.05605182266235351	0		4.42229150390625	0.08292877197265625	0		5.99459912109375	0.4210513000488281	0		-0.2271904296875	5.98803271484375	0		
-0.0075222902297973635	-0.0047119340896606444	0		0.4318616638183594	-2.385365478515625	0		-0.90336376953125	0.37227093505859377	0		-0.4249866027832031	-2.669124267578125	0		1.7307518310546874	-0.542757568359375	0		3.212180419921875	-0.04937918853759766	0		4.4274287109375	0.0753842544555664	0		5.9911044921875	0.40470571899414065	0		-0.21149797058105468	5.998521484375	0		
0.004785687923431397	-0.00318210506439209	0		0.40510055541992185	-2.382201171875	0		-0.9350017700195312	0.37656982421875	0		-0.47610601806640623	-2.6865234375	0		1.7107596435546875	-0.5577573852539063	0		3.225152587890625	-0.06798665618896485	0		4.4287744140625	0.07892760467529297	0		5.99130126953125	0.40383840942382815	0		-0.21000851440429688	5.9972431640625	0		
0.008138875007629394	-5.015680193901063E-4	0		0.43332223510742185	-2.382951904296875	0		-0.9238548583984375	0.36614901733398436	0		-0.4429452209472656	-2.690328369140625	0		1.760970947265625	-0.5629183349609375	0		3.261984375	-0.03696784210205078	0		4.45007763671875	0.07816259765625	0		5.9829951171875	0.408568359375	0		-0.19532672119140626	6.00774560546875	0		
0.0076213059425354005	0.008247488975524903	0		0.43253982543945313	-2.38621240234375	0		-0.934344482421875	0.37609048461914063	0		-0.4498188171386719	-2.69846435546875	0		1.758220703125	-0.5671807861328125	0		3.20592041015625	-0.060379047393798825	0		4.452427734375	0.07874381256103516	0		5.98598779296875	0.39387490844726564	0		-0.1948180236816406	6.008484375	0		
0.00577902889251709	-0.003979912996292114	0		0.45269573974609373	-2.395818115234375	0		-0.9020497436523438	0.3713105773925781	0		-0.4247371520996094	-2.71213525390625	0		1.7585677490234375	-0.5674793090820313	0		3.2362568359375	-0.06221065902709961	0		4.4527880859375	0.07839006042480469	0		5.9825703125	0.3777840881347656	0		-0.19433619689941406	6.00822607421875	0		
0.001247277021408081	8.453170061111451E-4	0		0.3981034851074219	-2.3921591796875	0		-0.93765576171875	0.371670166015625	0		-0.43152545166015627	-2.7202685546875	0		1.76970654296875	-0.581945068359375	0		3.2456044921875	-0.06466549682617187	0		4.4580546875	0.07098584747314453	0		5.9701865234375	0.40365908813476564	0		-0.19386727905273438	6.007970703125	0		
-0.0014145539999008178	-0.0033564751148223875	0		0.45096087646484373	-2.424301513671875	0		-0.9372478637695313	0.37142486572265626	0		-0.45933990478515624	-2.732045654296875	0		1.7360277099609376	-0.5866397705078125	0		3.234464599609375	-0.037746265411376954	0		4.46564404296875	0.08157833862304688	0		5.96862353515625	0.44474020385742186	0		-0.22749365234375	6.00329150390625	0		
0.005124438762664795	0.003295001983642578	0		0.4363302001953125	-2.42729638671875	0		-0.93275830078125	0.37511215209960935	0		-0.4171640930175781	-2.746995361328125	0		1.7853746337890626	-0.5917128295898437	0		3.243498779296875	-0.061147060394287106	0		4.4870634765625	0.08097027587890625	0		5.975828125	0.41113775634765626	0		-0.19298094177246095	6.00747314453125	0		
0.005559246063232422	0.0030553689002990724	0		0.4502099609375	-2.40175634765625	0		-0.9363916625976563	0.37093649291992187	0		-0.46661026000976563	-2.7403974609375	0		1.7858118896484374	-0.5919451904296875	0		3.258133544921875	-0.049610511779785156	0		4.4774990234375	0.08091687774658203	0		5.9669267578125	0.4197921447753906	0		-0.19257049560546874	6.00723291015625	0		
0.002951312065124512	-1.2574400007724762E-4	0		0.44922216796875	-2.42896337890625	0		-0.9410197143554687	0.3667799072265625	0		-0.4393299560546875	-2.7520859375	0		1.78319287109375	-0.5961087646484375	0		3.263457763671875	-0.05689362716674805	0		4.48307421875	0.08864356994628907	0		5.96773974609375	0.38832778930664064	0		-0.19218716430664062	6.0069990234375	0		
0.0033941569328308106	-3.4977999329566955E-4	0		0.4814288024902344	-2.44571533203125	0		-0.94464892578125	0.3626092529296875	0		-0.43309799194335935	-2.7674150390625	0		1.7613291015625	-0.6149340209960937	0		3.22904052734375	-0.04848214340209961	0		4.49248095703125	0.08633660888671875	0		5.97517626953125	0.3860775146484375	0		-0.19183525085449218	6.00677197265625	0		
-0.07314086151123046	0.001724442958831787	0		0.42900637817382814	-2.440034423828125	0		-0.94015234375	0.3663065490722656	0		-0.4366717224121094	-2.771572509765625	0		1.810704833984375	-0.6199356689453125	0		3.269071044921875	-0.07330077362060547	0		4.49679833984375	0.07914421844482422	0		5.973408203125	0.39464764404296876	0		-0.22463069152832033	6.00010595703125	0		
0.012226515769958497	-0.0029078478813171385	0		0.4673392639160156	-2.449866943359375	0		-0.9346654663085937	0.3699910583496094	0		-0.45723883056640624	-2.775439453125	0		1.7783046875	-0.610549072265625	0		3.242974853515625	-0.044981815338134765	0		4.5005439453125	0.09799220275878906	0		5.96818994140625	0.4207181091308594	0		-0.1912511749267578	6.0053388671875	0		
0.007735795021057129	0.0019746229648590088	0		0.4917459411621094	-2.455455078125	0		-0.898255859375	0.3691626892089844	0		-0.39697842407226563	-2.7906533203125	0		1.8187244873046875	-0.6123681640625	0		3.24596630859375	-0.07113818359375	0		4.50376513671875	0.08586911773681641	0		5.97104736328125	0.3773026123046875	0		-0.2250565185546875	6.00170166015625	0		
0.008162199974060058	0.0017818039655685424	0		0.48713284301757814	-2.46254833984375	0		-0.9480340576171875	0.3577771301269531	0		-0.445358154296875	-2.78404248046875	0		1.787907470703125	-0.6279853515625	0		3.23549658203125	-0.06504754638671875	0		4.4941904296875	0.08598308563232422	0		5.95158642578125	0.4075064697265625	0		-0.19073831176757813	6.00593359375	0		
0.005545723915100098	-0.0013531630039215088	0		0.4856158752441406	-2.46468408203125	0		-0.9106181640625	0.35694384765625	0		-0.40816928100585936	-2.804856201171875	0		1.8252567138671876	-0.6347257080078125	0		3.251713134765625	-0.07838865661621094	0		4.504619140625	0.08578241729736329	0		5.96176123046875	0.3898336181640625	0		-0.19050746154785156	6.00574169921875	0		
0.002922769069671631	-0.005480957984924316	0		0.46701620483398437	-2.4725283203125	0		-0.9471827392578125	0.35734759521484377	0		-0.43173956298828126	-2.8116494140625	0		1.7977760009765624	-0.6313746337890624	0		3.2454921875	-0.058337989807128905	0		4.50302587890625	0.08379759216308594	0		5.9542685546875	0.39539935302734375	0		-0.224356201171875	6.0011220703125	0		
0.009492869377136231	0.0012476769685745238	0		0.46959442138671875	-2.4707158203125	0		-0.9376097412109375	0.36499154663085936	0		-0.4332146301269531	-2.813802978515625	0		1.807202880859375	-0.6346285400390625	0		3.252467529296875	-0.08750213623046875	0		4.51347607421875	0.08362584686279297	0		5.95618505859375	0.4196426696777344	0		-0.22412141418457032	6.0009423828125	0		
